<svg width="200" height="88" viewBox="0 0 200 88" fill="none" xmlns="http://www.w3.org/2000/svg">
<g clip-path="url(#clip0_1623_4822)">
<path d="M62.8574 67.9681L79.7735 44.5079H63.178V37.8657H89.1463V44.5079L73.0883 67.3068H89.4197V73.9489H62.8574V67.9681Z" fill="#FF7800"/>
<path d="M91.5117 55.8091C91.5117 46.6063 98.2632 36.8179 110.795 36.8179C123.326 36.8179 130.078 46.6063 130.078 55.8751C130.078 65.21 123.326 74.9986 110.795 74.9986C98.2632 74.9986 91.5117 65.21 91.5117 55.8751V55.8091ZM100.111 55.9412C100.111 62.2528 104.901 66.9202 110.804 66.9202C116.707 66.9202 121.431 62.2528 121.431 55.8751C121.431 49.4975 116.707 44.83 110.804 44.83C104.901 44.83 100.111 49.4975 100.111 55.8751V55.9412Z" fill="#FF7800"/>
<path d="M132.049 67.9681L148.974 44.5079H132.379V37.8657H158.347V44.5079L142.28 67.3161H158.611V73.9584H132.049V67.9681Z" fill="#FF7800"/>
<path d="M160.713 55.8091C160.713 46.6063 167.464 36.8179 179.996 36.8179C192.527 36.8179 199.279 46.6063 199.279 55.8751C199.279 65.21 192.527 74.9986 179.996 74.9986C167.464 74.9986 160.713 65.21 160.713 55.8751V55.8091ZM169.303 55.9412C169.303 62.2528 174.093 66.9202 179.996 66.9202C185.899 66.9202 190.623 62.2528 190.623 55.8751C190.623 49.4975 185.899 44.83 179.996 44.83C174.093 44.83 169.303 49.4975 169.303 55.8751V55.9412Z" fill="#FF7800"/>
<path d="M27.2418 75.0015V68.4822L27.1758 49.2641C27.1662 47.2801 26.6478 45.3337 25.6577 43.614L21.1598 35.8098L18.9911 32.0493L14.0125 40.6946L13.6447 41.3276C12.8432 42.8299 12.3906 44.5494 12.3906 46.373C12.3906 48.121 12.8055 49.765 13.541 51.22L14.9743 53.7049L25.073 71.2315L27.2418 75.0015Z" fill="#FF7800"/>
<path d="M51.3525 61.3565C49.9852 63.7282 48.1182 65.6179 45.9494 66.9689L45.0065 67.517C45.0065 67.517 45.0065 67.517 44.9972 67.517L32.0508 75.0095V68.49V38.1232V33.8148C32.1826 31.3676 32.8805 28.911 34.1817 26.6528C35.549 24.2813 37.416 22.3916 39.5848 21.0405L40.5277 20.4925C40.5277 20.4925 40.5277 20.4925 40.537 20.4925L53.4836 13V19.5194V49.8863V54.1947V54.2042C53.3516 56.6418 52.6537 59.0891 51.3525 61.3565Z" fill="#FF7800"/>
<path d="M7.8546 74.9986C12.1926 74.9986 15.7092 71.4749 15.7092 67.1283C15.7092 62.7815 12.1926 59.2578 7.8546 59.2578C3.51662 59.2578 0 62.7815 0 67.1283C0 71.4749 3.51662 74.9986 7.8546 74.9986Z" fill="#FF7800"/>
</g>
<defs>
<clipPath id="clip0_1623_4822">
<rect width="200" height="62" fill="white" transform="translate(0 13)"/>
</clipPath>
</defs>
</svg>
