<svg width="150" height="150" viewBox="0 0 150 150" fill="none" xmlns="http://www.w3.org/2000/svg">
<rect width="150" height="150" rx="22" fill="#9DC6F0"/>
<rect x="10.4268" y="10.4282" width="129.545" height="129.545" rx="16" fill="#017FFF"/>
<path d="M89.291 87.3396C90.2243 85.6082 90.7057 83.6695 90.691 81.7026H87.891C87.8762 83.6695 88.3576 85.6082 89.291 87.3396Z" fill="white"/>
<path d="M92.7969 74.001C93.2472 75.5699 93.5076 77.1871 93.5726 78.8179H96.352C95.9218 76.7726 94.6245 75.0149 92.7969 74.001Z" fill="white"/>
<path d="M92.7969 86.5196C94.6245 85.5057 95.9217 83.748 96.3519 81.7026H93.5724C93.5076 83.3335 93.2472 84.9507 92.7969 86.5196Z" fill="white"/>
<path d="M82.2246 81.7026C82.6548 83.748 83.9521 85.5057 85.7796 86.5196C85.3293 84.9507 85.0689 83.3335 85.0039 81.7026H82.2246Z" fill="white"/>
<path d="M87.891 78.8196H90.691C90.7057 76.8527 90.2243 74.914 89.291 73.1826C88.3576 74.914 87.8762 76.8527 87.891 78.8196Z" fill="white"/>
<path d="M50.3584 58.6313H64.7783C64.7783 54.6494 61.5503 51.4214 57.5684 51.4214C53.5866 51.4214 50.3584 54.6492 50.3584 58.6313Z" fill="white"/>
<path d="M34.4941 99.0065C34.4967 101.395 36.4319 103.33 38.82 103.332H63.3338V110.542H51.7978V116.31H97.9413V110.542H86.4054V103.332H110.919C113.307 103.33 115.242 101.395 115.245 99.0065V94.6807H34.4941V99.0065Z" fill="white"/>
<path d="M47.4717 58.631C47.4762 54.8643 49.5769 51.4131 52.9207 49.6789C50.6043 47.7277 49.7542 44.537 50.7928 41.692C51.8313 38.8471 54.5371 36.9544 57.5657 36.9544C60.5943 36.9544 63.3001 38.8471 64.3386 41.692C65.3771 44.537 64.5271 47.7277 62.2107 49.6789C65.5545 51.4131 67.6551 54.8643 67.6596 58.631H70.8428C75.1756 52.0023 73.9553 43.1933 67.9837 37.9919C62.012 32.7905 53.1189 32.7905 47.1474 37.9919C41.1759 43.1933 39.9555 52.0023 44.2883 58.631H47.4717Z" fill="white"/>
<path d="M57.5642 48.537C59.9533 48.537 61.8901 46.6003 61.8901 44.2111C61.8901 41.822 59.9533 39.8853 57.5642 39.8853C55.175 39.8853 53.2383 41.822 53.2383 44.2111C53.2383 46.6003 55.175 48.537 57.5642 48.537Z" fill="white"/>
<path d="M68.4199 61.5151H46.7139C52.7997 67.2831 62.3341 67.2831 68.4199 61.5151Z" fill="white"/>
<path d="M82.2246 78.8179H85.0041C85.0691 77.1871 85.3295 75.5699 85.7798 74.001C83.9519 75.0149 82.6547 76.7726 82.2246 78.8179Z" fill="white"/>
<path d="M90.2104 59.739C89.6755 60.184 88.8992 60.184 88.3643 59.739L87.6141 59.1133L83.5547 64.3988H95.0198L90.9604 59.1134L90.2104 59.739Z" fill="white"/>
<path d="M110.919 47.0942H76.0661C76.8669 51.9305 75.6934 56.8856 72.8086 60.849C72.7526 60.9457 72.6853 61.0354 72.6084 61.1165C69.0889 65.8997 63.5044 68.724 57.5658 68.724C51.6272 68.724 46.0427 65.8997 42.5232 61.1165C42.4463 61.0354 42.379 60.9457 42.323 60.849C39.4382 56.8856 38.2647 51.9305 39.0655 47.0942H38.82C36.4319 47.0968 34.4967 49.032 34.4941 51.4201V91.7957H115.245V51.4201C115.242 49.032 113.307 47.0968 110.919 47.0942ZM70.5436 86.0277H44.588C43.7916 86.0277 43.1461 85.382 43.1461 84.5858C43.1461 83.7895 43.7917 83.1439 44.588 83.1439H70.5436C71.34 83.1439 71.9855 83.7895 71.9855 84.5858C71.9855 85.382 71.34 86.0277 70.5436 86.0277ZM70.5436 80.2597H44.588C43.7916 80.2597 43.1461 79.6141 43.1461 78.8178C43.1461 78.0214 43.7917 77.3759 44.588 77.3759H70.5436C71.34 77.3759 71.9855 78.0216 71.9855 78.8178C71.9855 79.6142 71.34 80.2597 70.5436 80.2597ZM70.5436 74.4919H44.588C43.7916 74.4919 43.1461 73.8463 43.1461 73.05C43.1461 72.2538 43.7917 71.6081 44.588 71.6081H70.5436C71.34 71.6081 71.9855 72.2538 71.9855 73.05C71.9855 73.8463 71.34 74.4919 70.5436 74.4919ZM89.2894 90.3537C83.7147 90.3537 79.1956 85.8346 79.1956 80.2599C79.1956 74.6852 83.7147 70.1661 89.2894 70.1661C94.8641 70.1661 99.3832 74.6852 99.3832 80.2599C99.3768 85.8318 94.8613 90.3472 89.2894 90.3537ZM99.3832 64.3979C99.3815 65.99 98.0913 67.2802 96.4993 67.2819H82.0794C80.4874 67.2802 79.1972 65.99 79.1954 64.3979V52.862C79.1972 51.27 80.4874 49.9798 82.0794 49.9781H96.4993C98.0913 49.9798 99.3815 51.27 99.3832 52.862V64.3979ZM110.919 88.9117H103.709C102.913 88.9117 102.267 88.266 102.267 87.4698C102.267 86.6735 102.913 86.0279 103.709 86.0279H110.919C111.716 86.0279 112.361 86.6735 112.361 87.4698C112.361 88.266 111.716 88.9117 110.919 88.9117ZM110.919 83.1437H103.709C102.913 83.1437 102.267 82.4981 102.267 81.7018C102.267 80.9054 102.913 80.2599 103.709 80.2599H110.919C111.716 80.2599 112.361 80.9056 112.361 81.7018C112.361 82.4982 111.716 83.1437 110.919 83.1437ZM110.919 65.84H103.709C102.913 65.84 102.267 65.1943 102.267 64.3981C102.267 63.6019 102.913 62.9562 103.709 62.9562H110.919C111.716 62.9562 112.361 63.6019 112.361 64.3981C112.361 65.1943 111.716 65.84 110.919 65.84ZM110.919 60.0721H103.709C102.913 60.0721 102.267 59.4264 102.267 58.6301C102.267 57.8337 102.913 57.1882 103.709 57.1882H110.919C111.716 57.1882 112.361 57.8339 112.361 58.6301C112.361 59.4264 111.716 60.0721 110.919 60.0721Z" fill="white"/>
<path d="M93.1787 57.2637L96.5009 61.5897L96.4995 54.4937L93.1787 57.2637Z" fill="white"/>
<path d="M93.9517 52.8638H84.625L89.2883 56.7541L93.9517 52.8638Z" fill="white"/>
<path d="M82.0811 54.4937V61.5868L85.4018 57.2637L82.0811 54.4937Z" fill="white"/>
</svg>
