<svg width="81" height="81" viewBox="0 0 81 81" fill="none" xmlns="http://www.w3.org/2000/svg">
<rect opacity="0.5" width="80.5238" height="80.5238" rx="10" fill="#FF7800"/>
<rect x="5.42969" y="5.42822" width="69.6667" height="69.6667" rx="10" fill="#FF7800"/>
<path d="M58.2521 60.1502H21.7679C19.6973 60.1502 18.02 58.4729 18.02 56.4138V24.0477C18.02 21.9771 19.6973 20.2998 21.7679 20.2998H58.2521C60.3111 20.2998 62 21.9771 62 24.0477V56.4138C61.9885 58.4729 60.3111 60.1502 58.2521 60.1502ZM21.7679 22.2894C20.7962 22.2894 20.0096 23.076 20.0096 24.0477V56.4138C20.0096 57.3855 20.7962 58.1721 21.7679 58.1721H58.2521C59.2238 58.1721 60.0104 57.3855 60.0104 56.4138V24.0477C60.0104 23.076 59.2238 22.2894 58.2521 22.2894H21.7679V22.2894Z" fill="white"/>
<path d="M23.503 27.4602C24.4166 27.4602 25.1572 26.7196 25.1572 25.806C25.1572 24.8925 24.4166 24.1519 23.503 24.1519C22.5895 24.1519 21.8489 24.8925 21.8489 25.806C21.8489 26.7196 22.5895 27.4602 23.503 27.4602Z" fill="white"/>
<path d="M28.1996 27.4602C29.1131 27.4602 29.8537 26.7196 29.8537 25.806C29.8537 24.8925 29.1131 24.1519 28.1996 24.1519C27.286 24.1519 26.5454 24.8925 26.5454 25.806C26.5454 26.7196 27.286 27.4602 28.1996 27.4602Z" fill="white"/>
<path d="M32.8268 27.4602C33.7403 27.4602 34.4809 26.7196 34.4809 25.806C34.4809 24.8925 33.7403 24.1519 32.8268 24.1519C31.9132 24.1519 31.1726 24.8925 31.1726 25.806C31.1726 26.7196 31.9132 27.4602 32.8268 27.4602Z" fill="white"/>
<path d="M60.9935 29.3455H19.0146V58.1719H60.9935V29.3455Z" fill="white"/>
<path d="M42.9599 38.4148H57.0723C57.7895 38.4148 58.3679 37.8249 58.3679 37.1077C58.3679 36.3905 57.7895 35.8005 57.0723 35.8005H42.9599C42.2427 35.8005 41.6643 36.3905 41.6643 37.1077C41.6643 37.8249 42.2427 38.4148 42.9599 38.4148Z" fill="#FF7800"/>
<path d="M57.0723 40.231H42.9599C42.2427 40.231 41.6643 40.8209 41.6643 41.5381C41.6643 42.2553 42.2427 42.8452 42.9599 42.8452H57.0723C57.7895 42.8452 58.3679 42.2553 58.3679 41.5381C58.3795 40.8209 57.7895 40.231 57.0723 40.231Z" fill="#FF7800"/>
<path d="M57.0723 44.6729H42.9599C42.2427 44.6729 41.6643 45.2628 41.6643 45.98C41.6643 46.6972 42.2427 47.2871 42.9599 47.2871H57.0723C57.7895 47.2871 58.3679 46.6972 58.3679 45.98C58.3795 45.2512 57.7895 44.6729 57.0723 44.6729Z" fill="#FF7800"/>
<path d="M57.0723 49.1033H42.9599C42.2427 49.1033 41.6643 49.6932 41.6643 50.4104C41.6643 51.1276 42.2427 51.7175 42.9599 51.7175H57.0723C57.7895 51.7175 58.3679 51.1276 58.3679 50.4104C58.3795 49.6932 57.7895 49.1033 57.0723 49.1033Z" fill="#FF7800"/>
<path d="M35.9267 35.6155H23.746C22.6124 35.6155 21.6292 36.5409 21.6292 37.6745V37.7555V49.8552V49.9362C21.6292 51.0235 22.5661 51.9142 23.6535 51.9142H23.7345H35.8342H35.9151C37.0488 51.9142 37.9163 50.9888 37.9163 49.8552V37.6629C37.9279 36.5293 37.0603 35.6155 35.9267 35.6155Z" fill="#FF7800"/>
</svg>
