<svg width="150" height="150" viewBox="0 0 150 150" fill="none" xmlns="http://www.w3.org/2000/svg">
<rect width="150" height="150" rx="22" fill="#EDD195"/>
<rect x="10" y="10" width="129.545" height="129.545" rx="16" fill="#F9B51E"/>
<path fill-rule="evenodd" clip-rule="evenodd" d="M47.5015 44.5454L65.8049 34L84.1104 44.5454V65.6362L65.8049 76.1815L47.5015 65.6362V44.5454ZM94.2472 104.325L99.5564 101.267L99.4402 101.425L100.286 102.886L97.3837 104.557L97.2632 104.626L97.2019 104.66L97.1723 104.675L97.1449 104.692H97.1343L97.1089 104.707H97.0962H97.0836H97.0709H97.0603H97.0455H97.0328L97.0117 104.719H96.9927L96.9525 104.74L96.9272 104.755H96.9102H96.8976L96.8701 104.77H96.8574L95.5007 105.551L94.6847 105.081L94.2472 104.325ZM94.6847 105.081L95.0926 105.786L95.5007 105.551L104.694 110.848L123 100.303V79.2121L104.694 68.6667L95.4968 73.9658L100.575 76.8921L99.7297 78.3536L94.4226 75.2955L95.0392 74.2294L86.3909 79.2121V100.303L94.6847 105.081ZM102.921 92.921H104.612V99.0374H102.921V92.921ZM102.921 80.6884H104.612V86.8047H102.921V80.6884ZM27 79.7669L45.3034 69.2215L63.609 79.7669V100.858L45.3034 111.403L27 100.858V79.7669ZM95.268 73.8339L95.4968 73.9658L95.0393 74.2294L95.268 73.8339ZM75.6901 74.783L72.2302 76.7718L72.1731 76.8035H72.1626L72.1436 76.8161H72.133L70.3872 77.8222L71.2326 79.2838L76.5398 76.2256L75.6943 74.764L75.6901 74.783ZM69.6939 82.5866H68.0031V88.7029H69.6939V82.5866ZM69.6939 94.8192H68.0031V100.303L68.5526 100.619L68.7344 100.303H69.6939V94.8192ZM74.7052 102.216L73.8598 103.677L75.8972 104.85L76.0114 104.917L76.0663 104.947H76.0769L76.1001 104.96H76.1551L76.1826 104.974H76.2079L76.3052 105.031H76.3284L79.1268 106.643L79.9722 105.181L74.6629 102.123L74.7052 102.216ZM88.94 107.383L86.3065 108.899L85.3216 108.332L84.4762 109.794L86.1142 110.736H86.2093L86.2389 110.753L86.2621 110.766L86.2812 110.779L89.7601 108.775L88.9147 107.313L88.94 107.383ZM86.3065 68.6667L80.9994 71.7248L81.8448 73.1864L86.3065 70.6155L89.1218 72.2373L89.9672 70.7757L86.4502 68.7489H86.427L86.3784 68.7215L86.3361 68.6983L86.3065 68.6667Z" fill="white"/>
</svg>
